# xmcd
#
# Track frame offsets:
#	150
#	16650
#	26637
#	42212
#	60057
#	73215
#	88212
#	107932
#	125487
#	144470
#	160215
#	162065
#
# Disc length: 2336 seconds
# Revision: 0
# Processed by: cddbd v1.5.2PL0 Copyright (c) Steve Scherf et al.
# Submitted via: dBpowerAMP V12.0
#
DISCID=98091e0c
DTITLE=Laura Boosinger - Down the Road
DYEAR=1998
DGENRE=Country
TTITLE0=Back to Old Smoky Mountains
TTITLE1=Italy
TTITLE2=Dixie Darling
TTITLE3=Two Soldiers
TTITLE4=Josie Girl
TTITLE5=Letter from Down the Road
TTITLE6=Tom Dula
TTITLE7=Fly Around My Pretty Little Miss
TTITLE8=Little Margaret
TTITLE9=Little Moses
TTITLE10=Consolation
TTITLE11=Old Fashioned Locket
EXTD=
EXTT0=
EXTT1=
EXTT2=
EXTT3=
EXTT4=
EXTT5=
EXTT6=
EXTT7=
EXTT8=
EXTT9=
EXTT10=
EXTT11=
PLAYORDER=
